<svg width="47" height="44" viewBox="0 0 47 44" fill="none" xmlns="http://www.w3.org/2000/svg">
<path d="M40.7355 5.69401e-07C39.3796 -0.000573225 38.0602 0.432534 36.9755 1.23422C35.8909 2.03591 35.0995 3.16287 34.7205 4.44571C34.3415 5.72854 34.3953 7.09795 34.8737 8.3481C35.3522 9.59825 36.2295 10.6616 37.3738 11.3783L33.286 25.4771C33.1591 25.4691 33.032 25.4649 32.9048 25.4645C31.5573 25.4631 30.2456 25.8922 29.1664 26.6874L21.6143 20.4857C21.9718 19.4404 22.0386 18.3197 21.8076 17.2404C21.5766 16.161 21.0564 15.1623 20.301 14.3482C19.5455 13.5341 18.5825 12.9344 17.5122 12.6114C16.4418 12.2884 15.3032 12.2539 14.2147 12.5116C13.1262 12.7693 12.1277 13.3096 11.323 14.0765C10.5183 14.8433 9.93681 15.8086 9.63904 16.872C9.34128 17.9354 9.33811 19.058 9.62986 20.123C9.92162 21.188 10.4976 22.1565 11.298 22.9277L6.86467 31.6655C6.67052 31.6474 6.47562 31.6381 6.2806 31.6377C4.77983 31.6359 3.3281 32.1643 2.18894 33.1271C1.04978 34.0899 0.298679 35.4233 0.0719858 36.8852C-0.154707 38.3471 0.158029 39.8407 0.953428 41.0948C1.74883 42.3489 2.97417 43.2805 4.40703 43.7203C5.83989 44.1601 7.3853 44.0792 8.76274 43.492C10.1402 42.9049 11.2584 41.8506 11.9143 40.5204C12.5702 39.1902 12.7204 37.6724 12.3377 36.2424C11.9549 34.8124 11.0645 33.5651 9.82818 32.7267L14.0176 24.4711C15.0352 24.7478 16.1074 24.7659 17.1341 24.5237C18.1608 24.2816 19.1085 23.7871 19.8888 23.0864L27.2007 29.091C26.7042 30.1692 26.5328 31.3655 26.707 32.537C26.8812 33.7086 27.3937 34.806 28.1833 35.6986C28.9729 36.5911 30.0063 37.241 31.1603 37.5708C32.3144 37.9007 33.5403 37.8965 34.692 37.5588C35.8436 37.2211 36.8725 36.5641 37.6558 35.6662C38.4391 34.7683 38.9438 33.6674 39.1098 32.4947C39.2758 31.322 39.096 30.127 38.5919 29.0521C38.0878 27.9773 37.2807 27.068 36.2667 26.4327L40.3543 12.3339C40.4805 12.3414 40.6073 12.3464 40.7355 12.3464C42.3969 12.3464 43.9903 11.696 45.1652 10.5383C46.34 9.38064 47 7.81046 47 6.17322C47 4.53598 46.34 2.9658 45.1652 1.80809C43.9903 0.650391 42.3969 5.69401e-07 40.7355 5.69401e-07ZM6.2806 40.8976C5.6611 40.8976 5.05551 40.7165 4.54041 40.3774C4.02531 40.0382 3.62384 39.5562 3.38677 38.9922C3.14969 38.4282 3.08767 37.8075 3.20852 37.2088C3.32938 36.6101 3.6277 36.0601 4.06576 35.6284C4.50381 35.1967 5.06193 34.9028 5.66953 34.7837C6.27713 34.6646 6.90692 34.7257 7.47927 34.9593C8.05161 35.1929 8.5408 35.5885 8.88498 36.0961C9.22916 36.6037 9.41286 37.2005 9.41286 37.811C9.41193 38.6293 9.08162 39.4139 8.49441 39.9925C7.9072 40.5712 7.11104 40.8967 6.2806 40.8976ZM15.6774 21.6063C15.0579 21.6063 14.4523 21.4252 13.9372 21.0861C13.4221 20.7469 13.0206 20.2649 12.7836 19.7008C12.5465 19.1368 12.4844 18.5162 12.6053 17.9175C12.7262 17.3187 13.0245 16.7688 13.4625 16.3371C13.9006 15.9054 14.4587 15.6115 15.0663 15.4924C15.6739 15.3733 16.3037 15.4344 16.876 15.668C17.4484 15.9016 17.9376 16.2972 18.2818 16.8048C18.6259 17.3124 18.8096 17.9092 18.8096 18.5197C18.8087 19.338 18.4784 20.1226 17.8912 20.7012C17.304 21.2799 16.5078 21.6053 15.6774 21.6063ZM32.9048 34.7244C32.2853 34.7244 31.6797 34.5433 31.1646 34.2042C30.6495 33.865 30.2481 33.3829 30.011 32.8189C29.7739 32.2549 29.7119 31.6343 29.8327 31.0356C29.9536 30.4368 30.2519 29.8869 30.69 29.4552C31.128 29.0235 31.6861 28.7295 32.2938 28.6104C32.9013 28.4913 33.5311 28.5525 34.1035 28.7861C34.6758 29.0197 35.165 29.4153 35.5092 29.9229C35.8534 30.4305 36.0371 31.0273 36.0371 31.6377C36.0362 32.4561 35.7058 33.2406 35.1186 33.8193C34.5314 34.3979 33.7353 34.7234 32.9048 34.7244ZM40.7355 9.25983C40.116 9.25983 39.5104 9.0788 38.9953 8.73964C38.4802 8.40048 38.0787 7.91842 37.8416 7.35441C37.6046 6.79041 37.5425 6.1698 37.6634 5.57105C37.7843 4.97231 38.0826 4.42233 38.5206 3.99066C38.9587 3.55899 39.5168 3.26502 40.1244 3.14592C40.732 3.02682 41.3618 3.08795 41.9341 3.32156C42.5065 3.55518 42.9957 3.9508 43.3399 4.45839C43.684 4.96598 43.8677 5.56275 43.8677 6.17322C43.8668 6.99156 43.5365 7.77611 42.9493 8.35477C42.3621 8.93342 41.5659 9.25891 40.7355 9.25983Z" fill="#098A5B"/>
</svg>
