<svg width="49" height="49" viewBox="0 0 49 49" fill="none" xmlns="http://www.w3.org/2000/svg">
<path d="M47 3.5V45.5C47 45.8978 46.842 46.2794 46.5607 46.5607C46.2794 46.842 45.8978 47 45.5 47H3.5C3.10218 47 2.72064 46.842 2.43934 46.5607C2.15804 46.2794 2 45.8978 2 45.5V3.5C2 3.10218 2.15804 2.72064 2.43934 2.43934C2.72064 2.15804 3.10218 2 3.5 2H45.5C45.8978 2 46.2794 2.15804 46.5607 2.43934C46.842 2.72064 47 3.10218 47 3.5V3.5Z" stroke="#098A5B" stroke-width="4" stroke-linecap="round" stroke-linejoin="round"/>
<path d="M2 34.5L19.5 27L47 39.5M34.5 19.5C33.1739 19.5 31.9021 18.9732 30.9645 18.0355C30.0268 17.0979 29.5 15.8261 29.5 14.5C29.5 13.1739 30.0268 11.9021 30.9645 10.9645C31.9021 10.0268 33.1739 9.5 34.5 9.5C35.8261 9.5 37.0979 10.0268 38.0355 10.9645C38.9732 11.9021 39.5 13.1739 39.5 14.5C39.5 15.8261 38.9732 17.0979 38.0355 18.0355C37.0979 18.9732 35.8261 19.5 34.5 19.5V19.5Z" stroke="#098A5B" stroke-width="4" stroke-linecap="round" stroke-linejoin="round"/>
</svg>
