<svg width="44" height="67" viewBox="0 0 44 67" fill="none" xmlns="http://www.w3.org/2000/svg">
<path d="M21.9906 0C9.93079 0 0.144548 9.87904 0.00386899 22.1308V22.1423C-0.00128966 22.3033 -0.00128966 22.4643 0.00386899 22.6252C0.010676 22.9256 0.0310971 23.3391 0.0787463 23.8451C0.272553 26.9442 1.09863 29.9681 2.50427 32.724C3.90992 35.4799 5.86427 37.9072 8.24265 39.8511C12.4086 44.6382 13.4387 48.9262 13.5544 50.3678V50.3817C13.5703 50.5319 13.593 50.682 13.6225 50.8276H13.6157V54.9631L30.6333 51.5022V51.3867C30.7626 51.0725 30.8465 50.7352 30.876 50.3817V50.3655C31.0054 48.7737 31.6929 44.5342 35.7612 39.8742C38.1519 37.9207 40.1139 35.4785 41.5205 32.7052C42.927 29.932 43.747 26.8893 43.9274 23.7734C43.9678 23.3348 43.9921 22.8947 44 22.4542V22.1932C43.848 9.89752 34.064 0 21.9906 0ZM4.54189 22.2024C4.58971 17.5225 6.44914 13.0509 9.71623 9.75888C12.9833 6.46687 17.3942 4.62044 21.9906 4.62069C31.559 4.62069 39.3349 12.4597 39.462 22.2417V22.4566C39.462 22.579 39.4484 22.8586 39.403 23.42L39.3984 23.4477V23.4777C39.2572 25.9813 38.5953 28.4259 37.4567 30.6495C36.318 32.8731 34.7285 34.8252 32.7934 36.3764L32.6413 36.4965L32.512 36.6421C28.2281 41.4822 26.9007 46.1076 26.4923 48.8176H25.0583C25.1604 45.2712 25.6233 38.6636 27.595 36.4572C29.5464 34.8862 30.8397 32.5066 30.9986 29.8034C31.0212 29.5493 31.0213 29.3876 31.0213 29.2721V29.1797C30.9967 26.7633 30.037 24.4544 28.3504 22.7544C26.6637 21.0543 24.3865 20.1005 22.0133 20.1C20.1461 20.1007 18.3256 20.6936 16.8046 21.7964C15.2837 22.8991 14.1379 24.4569 13.5265 26.2533C12.9152 28.0497 12.8686 29.9953 13.3933 31.8199C13.918 33.6444 14.9878 35.2572 16.4542 36.4341C18.4101 38.659 18.8911 45.2712 19.0068 48.8176H17.9177C17.4095 46.029 15.7258 41.4222 11.4964 36.6236L11.3648 36.4757L11.2105 36.3533C9.28355 34.8074 7.6992 32.8643 6.5613 30.6514C5.4234 28.4384 4.75765 26.0056 4.60769 23.5124L4.60315 23.4708L4.59862 23.4269C4.56175 23.0545 4.54206 22.6806 4.53962 22.3064V22.2394L4.54189 22.2047V22.2024ZM22.0133 22.4103C25.6891 22.4103 28.6842 25.4369 28.7295 29.1797V29.3645C28.7295 29.4338 28.7295 29.5262 28.7069 29.6648C28.5934 31.6055 27.6631 33.4307 26.1656 34.6321L26.0067 34.7476L25.8706 34.8862C23.3747 37.7048 22.8528 44.8669 22.7621 48.7945H21.2872C21.1737 44.8669 20.6292 37.7048 18.1333 34.8862L17.9971 34.7476L17.8383 34.6321C17.0888 34.0286 16.4745 33.2692 16.0362 32.4046C15.598 31.5401 15.346 30.5903 15.297 29.6186C15.2966 29.5721 15.292 29.5257 15.2834 29.48C15.2786 29.4572 15.2756 29.434 15.2743 29.4107V29.2028C15.3424 25.46 18.3602 22.4103 22.0133 22.4103ZM30.6333 53.8588L13.6157 57.3197V59.5584L30.6333 55.908V53.8588ZM13.6157 62.3793V61.9172L30.6333 58.2692V62.3793C30.6333 62.9921 30.3942 63.5797 29.9687 64.013C29.5432 64.4463 28.966 64.6897 28.3642 64.6897H25.832C25.4485 65.3848 24.8915 65.9645 24.2174 66.3702C23.5433 66.7759 22.7759 66.9931 21.9929 67C21.2098 66.9931 20.4424 66.7759 19.7683 66.3702C19.0942 65.9645 18.5372 65.3848 18.1537 64.6897H15.8847C15.2829 64.6897 14.7058 64.4463 14.2802 64.013C13.8547 63.5797 13.6157 62.9921 13.6157 62.3793Z" fill="#098A5B"/>
</svg>
