<svg width="63" height="63" viewBox="0 0 63 63" fill="none" xmlns="http://www.w3.org/2000/svg">
<path d="M16.107 3.09442C18.7667 1.08013 22.0136 -0.0062896 25.35 0.00172251C26.5022 -0.0241158 27.6424 0.241098 28.6649 0.772824C29.6875 1.30455 30.5594 2.08561 31.2 3.04372C31.8406 2.08561 32.7125 1.30455 33.7351 0.772824C34.7576 0.241098 35.8978 -0.0241158 37.05 0.00172251C40.3864 -0.0062896 43.6333 1.08013 46.293 3.09442C48.3405 4.68562 49.92 6.88912 50.4777 9.55282C51.7569 9.65032 52.9269 10.1807 53.9097 10.9802C55.3995 12.1892 56.4837 14.0027 57.1662 15.9215C58.2348 18.905 58.5234 22.7075 57.4158 25.9445C57.6966 26.0771 57.9735 26.2331 58.2426 26.4125C59.3151 27.1262 60.1302 28.148 60.7308 29.3531C61.9125 31.7126 62.4 35.0042 62.4 39.0017C62.4 43.4516 60.7035 46.439 58.5507 48.2837C57.3602 49.3045 55.9553 50.0442 54.4401 50.4482C54.0501 52.6244 52.9581 55.1438 51.246 57.281C49.023 60.0695 45.5754 62.4017 40.95 62.4017C37.284 62.4017 34.3668 60.3737 32.4714 58.3847C32.0183 57.9098 31.5937 57.4084 31.2 56.8832C30.8063 57.4085 30.3818 57.9099 29.9286 58.3847C28.0332 60.3737 25.1199 62.4017 21.45 62.4017C16.8246 62.4017 13.3809 60.0695 11.154 57.281C9.55406 55.2942 8.45823 52.95 7.9599 50.4482C6.44467 50.0442 5.03978 49.3045 3.8493 48.2837C1.6965 46.439 0 43.4477 0 39.0017C0 35.0042 0.4914 31.7087 1.6692 29.3531C2.2274 28.1713 3.08523 27.1561 4.1574 26.4086C4.4208 26.2343 4.69721 26.0804 4.9842 25.9484C3.8766 22.7036 4.1652 18.905 5.2338 15.9215C5.9163 14.0027 7.0005 12.1892 8.4903 10.9802C9.4731 10.1807 10.6431 9.65422 11.9223 9.55282C12.4839 6.88912 14.0634 4.68562 16.1109 3.09442H16.107ZM29.25 9.75172V9.71272L29.2422 9.51772C29.1848 8.50101 28.9825 7.49769 28.6416 6.53812C28.3989 5.81374 27.9856 5.15833 27.4365 4.62712C26.8605 4.1255 26.113 3.86564 25.35 3.90172C22.8811 3.89326 20.4767 4.69014 18.5016 6.17152C16.692 7.57942 15.6 9.48652 15.6 11.7017C15.5998 12.0105 15.5262 12.3149 15.3853 12.5897C15.2445 12.8645 15.0403 13.102 14.7898 13.2825C14.5392 13.463 14.2493 13.5814 13.9441 13.6279C13.6388 13.6745 13.3268 13.6479 13.0338 13.5503C12.3006 13.3085 11.6454 13.445 10.9473 14.0066C10.1829 14.6306 9.438 15.7382 8.9037 17.2319C7.8156 20.2817 7.9287 23.975 9.4224 26.2214C9.63572 26.5413 9.7497 26.9172 9.75 27.3017H12.675C15.0023 27.3017 17.2342 28.2262 18.8799 29.8719C20.5255 31.5175 21.45 33.7494 21.45 36.0767V37.3832C22.7511 37.8432 23.8476 38.7484 24.5459 39.9387C25.2441 41.129 25.4991 42.5278 25.2658 43.8879C25.0324 45.248 24.3257 46.4818 23.2706 47.3713C22.2156 48.2608 20.88 48.7487 19.5 48.7487C18.12 48.7487 16.7844 48.2608 15.7294 47.3713C14.6743 46.4818 13.9676 45.248 13.7342 43.8879C13.5009 42.5278 13.7559 41.129 14.4541 39.9387C15.1524 38.7484 16.2489 37.8432 17.55 37.3832V36.0767C17.55 33.3857 15.366 31.2017 12.675 31.2017H5.85C5.61686 31.2013 5.38569 31.1591 5.1675 31.0769L5.1558 31.1003C4.3836 32.6408 3.9 35.1992 3.9 39.0017C3.9 42.3518 5.1285 44.2394 6.3882 45.3197C7.7415 46.4819 9.243 46.8017 9.75 46.8017C10.2672 46.8017 10.7632 47.0072 11.1289 47.3729C11.4946 47.7386 11.7 48.2346 11.7 48.7517C11.7 50.1869 12.48 52.6946 14.196 54.8474C15.8691 56.9339 18.2754 58.5017 21.45 58.5017C23.634 58.5017 25.5918 57.281 27.105 55.6937C27.8499 54.9137 28.431 54.1064 28.8093 53.4434C28.9815 53.1494 29.1289 52.8415 29.25 52.523V21.4517H25.0185C24.5585 22.7528 23.6534 23.8494 22.4631 24.5476C21.2728 25.2459 19.8739 25.5008 18.5138 25.2675C17.1537 25.0341 15.9199 24.3274 15.0304 23.2724C14.1409 22.2173 13.6531 20.8817 13.6531 19.5017C13.6531 18.1217 14.1409 16.7862 15.0304 15.7311C15.9199 14.676 17.1537 13.9693 18.5138 13.736C19.8739 13.5026 21.2728 13.7576 22.4631 14.4558C23.6534 15.1541 24.5585 16.2507 25.0185 17.5517H29.25V9.75172ZM33.15 48.7478V52.5191C33.2711 52.8376 33.4185 53.1455 33.5907 53.4395C33.9729 54.1025 34.5501 54.9098 35.2911 55.6898C36.8082 57.2771 38.7699 58.4978 40.95 58.4978C44.1246 58.4978 46.5309 56.93 48.204 54.8435C49.92 52.6907 50.7 50.183 50.7 48.7478C50.7 48.2306 50.9054 47.7347 51.2711 47.369C51.6368 47.0033 52.1328 46.7978 52.65 46.7978C53.157 46.7978 54.6585 46.478 56.0118 45.3158C57.2715 44.2355 58.5 42.3479 58.5 38.9978C58.5 35.1953 58.0125 32.6408 57.2442 31.0964C56.9872 30.5213 56.5837 30.0238 56.0742 29.6534C55.6351 29.3727 55.1208 29.2326 54.6 29.2517C54.2473 29.2515 53.9012 29.1557 53.5986 28.9744C53.2961 28.7931 53.0484 28.5331 52.8819 28.2221C52.7154 27.9112 52.6364 27.5609 52.6532 27.2085C52.6701 26.8562 52.7822 26.5151 52.9776 26.2214C54.4752 23.975 54.5844 20.2817 53.4963 17.2319C52.962 15.7382 52.2171 14.6267 51.4527 14.0066C50.7546 13.445 50.0994 13.3046 49.3662 13.5503C49.0732 13.6479 48.7612 13.6745 48.4559 13.6279C48.1507 13.5814 47.8608 13.463 47.6102 13.2825C47.3597 13.102 47.1555 12.8645 47.0147 12.5897C46.8738 12.3149 46.8002 12.0105 46.8 11.7017C46.8 9.48652 45.708 7.57942 43.8945 6.17152C41.9204 4.69095 39.5176 3.89411 37.05 3.90172C36.287 3.86564 35.5396 4.1255 34.9635 4.62712C34.4128 5.15771 33.9981 5.81322 33.7545 6.53812C33.3832 7.55682 33.1791 8.62886 33.15 9.71272V44.8517H36.075C38.766 44.8517 40.95 42.6677 40.95 39.9767V32.8202C39.6489 32.3602 38.5524 31.4551 37.8541 30.2648C37.1559 29.0745 36.9009 27.6757 37.1343 26.3155C37.3676 24.9554 38.0743 23.7216 39.1294 22.8321C40.1844 21.9426 41.52 21.4548 42.9 21.4548C44.28 21.4548 45.6156 21.9426 46.6706 22.8321C47.7257 23.7216 48.4324 24.9554 48.6658 26.3155C48.8991 27.6757 48.6441 29.0745 47.9459 30.2648C47.2476 31.4551 46.1511 32.3602 44.85 32.8202V39.9767C44.85 42.304 43.9255 44.536 42.2799 46.1816C40.6342 47.8272 38.4023 48.7517 36.075 48.7517H33.15V48.7478ZM17.55 19.5017C17.55 20.0189 17.7554 20.5149 18.1211 20.8806C18.4868 21.2463 18.9828 21.4517 19.5 21.4517C20.0172 21.4517 20.5132 21.2463 20.8789 20.8806C21.2446 20.5149 21.45 20.0189 21.45 19.5017C21.45 18.9846 21.2446 18.4886 20.8789 18.1229C20.5132 17.7572 20.0172 17.5517 19.5 17.5517C18.9828 17.5517 18.4868 17.7572 18.1211 18.1229C17.7554 18.4886 17.55 18.9846 17.55 19.5017ZM42.9 29.2517C43.4172 29.2517 43.9132 29.0463 44.2789 28.6806C44.6446 28.3149 44.85 27.8189 44.85 27.3017C44.85 26.7845 44.6446 26.2886 44.2789 25.9229C43.9132 25.5572 43.4172 25.3517 42.9 25.3517C42.3828 25.3517 41.8868 25.5572 41.5211 25.9229C41.1554 26.2886 40.95 26.7845 40.95 27.3017C40.95 27.8189 41.1554 28.3149 41.5211 28.6806C41.8868 29.0463 42.3828 29.2517 42.9 29.2517ZM19.5 40.9517C18.9828 40.9517 18.4868 41.1572 18.1211 41.5229C17.7554 41.8886 17.55 42.3846 17.55 42.9017C17.55 43.4189 17.7554 43.9149 18.1211 44.2806C18.4868 44.6463 18.9828 44.8517 19.5 44.8517C20.0172 44.8517 20.5132 44.6463 20.8789 44.2806C21.2446 43.9149 21.45 43.4189 21.45 42.9017C21.45 42.3846 21.2446 41.8886 20.8789 41.5229C20.5132 41.1572 20.0172 40.9517 19.5 40.9517Z" fill="#098A5B"/>
</svg>
