<svg width="50" height="50" viewBox="0 0 50 50" fill="none" xmlns="http://www.w3.org/2000/svg">
<path fill-rule="evenodd" clip-rule="evenodd" d="M0 24.8125C0 31.3932 2.61417 37.7043 7.26741 42.3576C11.9207 47.0108 18.2318 49.625 24.8125 49.625C31.3932 49.625 37.7043 47.0108 42.3576 42.3576C47.0108 37.7043 49.625 31.3932 49.625 24.8125C49.625 18.2318 47.0108 11.9207 42.3576 7.26741C37.7043 2.61417 31.3932 0 24.8125 0C18.2318 0 11.9207 2.61417 7.26741 7.26741C2.61417 11.9207 0 18.2318 0 24.8125ZM45.3714 24.8125C45.3714 30.2651 43.2054 35.4943 39.3499 39.3499C35.4943 43.2054 30.2651 45.3714 24.8125 45.3714C19.3599 45.3714 14.1307 43.2054 10.2751 39.3499C6.4196 35.4943 4.25357 30.2651 4.25357 24.8125C4.25357 19.3599 6.4196 14.1307 10.2751 10.2751C14.1307 6.4196 19.3599 4.25357 24.8125 4.25357C30.2651 4.25357 35.4943 6.4196 39.3499 10.2751C43.2054 14.1307 45.3714 19.3599 45.3714 24.8125Z" fill="#098A5B"/>
<path fill-rule="evenodd" clip-rule="evenodd" d="M14.1786 24.8125C14.1786 37.6356 18.4066 48.2071 24.8125 48.2071C31.2184 48.2071 35.4464 37.6356 35.4464 24.8125C35.4464 11.9894 31.2184 1.41785 24.8125 1.41785C18.4066 1.41785 14.1786 11.9894 14.1786 24.8125ZM31.1928 24.8125C31.1928 35.4804 27.8042 43.9536 24.8125 43.9536C21.8208 43.9536 18.4321 35.4804 18.4321 24.8125C18.4321 14.1445 21.8208 5.67142 24.8125 5.67142C27.8042 5.67142 31.1928 14.1445 31.1928 24.8125Z" fill="#098A5B"/>
<path d="M6.66959 11.9582L9.52232 8.80487C9.80589 9.06008 10.115 9.3153 10.4439 9.56201C14.0481 12.2616 19.8018 13.929 26.0829 13.929C31.4452 13.929 36.4389 12.7182 40.0658 10.6452C40.9392 10.1462 41.7162 9.60454 42.3882 9.02889L45.1502 12.2644C44.2275 13.0471 43.2324 13.7403 42.1784 14.3345C37.8795 16.7959 32.157 18.1797 26.0829 18.1797C18.9312 18.1797 12.2871 16.2571 7.89178 12.9649C7.46914 12.6483 7.06131 12.3123 6.66959 11.9582ZM6.66959 37.7121L9.52232 40.8655C9.80589 40.6074 10.115 40.355 10.4439 40.1083C14.0481 37.4087 19.8018 35.7413 26.0829 35.7413C31.4452 35.7413 36.4389 36.9522 40.0658 39.0251C40.9392 39.5242 41.7162 40.0658 42.3882 40.6414L45.1502 37.4059C44.2263 36.6247 43.2314 35.9317 42.1784 35.3358C37.8795 32.8744 32.157 31.4906 26.0829 31.4906C18.9312 31.4906 12.2871 33.4132 7.89178 36.7055C7.46913 37.0221 7.0613 37.358 6.66959 37.7121ZM1.41785 26.9393V22.6857H48.2071V26.9393H1.41785Z" fill="#098A5B"/>
</svg>
