<svg width="47" height="47" viewBox="0 0 47 47" fill="none" xmlns="http://www.w3.org/2000/svg">
<path d="M2.72297 44.2691L2.73095 44.2771C2.94273 44.4904 3.19459 44.6598 3.47204 44.7754C3.7495 44.8911 4.04708 44.9508 4.34768 44.951C4.60062 44.9508 4.85181 44.9091 5.09124 44.8276L18.1269 40.4055L43.1416 15.3909C44.6708 13.8615 45.5299 11.7873 45.5298 9.62461C45.5297 7.46188 44.6704 5.38778 43.1411 3.85856C41.6117 2.32935 39.5376 1.4703 37.3748 1.4704C35.2121 1.47049 33.138 2.32972 31.6088 3.85907L6.59413 28.8737L2.17246 41.9091C2.03318 42.3144 2.01095 42.7508 2.10832 43.1682C2.20568 43.5856 2.41871 43.9672 2.72297 44.2691ZM33.6861 5.93616C34.6657 4.96396 35.9907 4.41959 37.3709 4.42224C38.7511 4.42489 40.074 4.97435 41.0499 5.9503C42.0258 6.92625 42.5753 8.24916 42.5779 9.62934C42.5805 11.0095 42.0361 12.3345 41.0639 13.3141L37.7744 16.6036L30.3964 9.22561L33.6861 5.93616ZM9.15619 30.4659L28.3193 11.3027L35.6973 18.6807L16.5341 37.8438L5.36846 41.6316L9.15619 30.4659Z" fill="#098A5B"/>
</svg>
